<svg width="34" height="26" viewBox="0 0 34 26" fill="none" xmlns="http://www.w3.org/2000/svg">
<path opacity="0.4" fill-rule="evenodd" clip-rule="evenodd" d="M13.4961 19.5592C13.0504 19.7948 13.026 19.882 12.9864 21.3862C12.9473 22.8702 12.9056 23.0564 12.5219 23.4607C12.2624 23.7344 11.7482 23.9802 11.4337 23.981C10.9295 23.9823 10.4744 24.3337 10.3893 24.7873C10.327 25.1191 10.5115 25.5498 10.7997 25.7457C11.2244 26.0342 12.2087 25.9254 13.0219 25.5C13.4953 25.2522 14.1781 24.5843 14.4526 24.1004C14.8166 23.4587 14.9124 22.9152 14.9124 21.4923C14.9124 20.3599 14.8998 20.2152 14.7804 19.9684C14.6845 19.7704 14.5736 19.6595 14.3756 19.5636C14.0404 19.4014 13.7971 19.4001 13.4961 19.5592ZM16.4891 19.5768C16.0001 19.8572 16.0018 19.8464 16.0019 22.6669C16.002 25.4551 16.0033 25.4644 16.4439 25.7587C16.9002 26.0635 17.5635 25.8849 17.8121 25.3902C17.9131 25.1893 17.9242 24.9194 17.9242 22.6669C17.9243 20.3551 17.9154 20.1497 17.8055 19.9433C17.6611 19.6719 17.2673 19.4337 16.9631 19.4337C16.8397 19.4337 16.6264 19.4981 16.4891 19.5768ZM19.5458 19.5649C19.3536 19.66 19.239 19.7757 19.1452 19.9696C19.0265 20.2149 19.0138 20.3617 19.0138 21.4923C19.0138 22.9152 19.1096 23.4587 19.4735 24.1004C19.7481 24.5843 20.4308 25.2522 20.9043 25.5C21.7175 25.9254 22.7018 26.0342 23.1264 25.7457C23.4146 25.5498 23.5991 25.1191 23.5369 24.7873C23.4518 24.3337 22.9966 23.9823 22.4924 23.981C22.178 23.9802 21.6637 23.7344 21.4042 23.4607C21.0206 23.0564 20.9789 22.8702 20.9398 21.3862C20.8999 19.8742 20.876 19.7905 20.4164 19.5561C20.1039 19.3966 19.8811 19.3989 19.5458 19.5649Z" fill="#002878"/>
<path fill-rule="evenodd" clip-rule="evenodd" d="M3.70895 1.00408C3.52124 1.04952 3.12072 1.20903 2.81888 1.3586C1.86126 1.83315 1.13627 2.68265 0.740099 3.79439L0.591679 4.21094L0.572197 9.44217C0.550216 15.3294 0.541629 15.1987 1.01477 16.1627C1.51213 17.1761 2.51537 18.0011 3.63365 18.3162C3.84244 18.375 4.38447 18.43 4.96341 18.4512L5.9407 18.487L5.94166 17.0845C5.94275 15.4872 5.99933 15.1319 6.37455 14.3684C6.72035 13.6646 7.45617 12.9381 8.18366 12.582C9.15294 12.1075 8.7642 12.1276 16.9633 12.1276C25.1623 12.1276 24.7736 12.1075 25.7429 12.582C26.4703 12.9381 27.2062 13.6646 27.552 14.3684C27.9272 15.1319 27.9838 15.4872 27.9849 17.0845L27.9858 18.487L28.9631 18.4512C29.542 18.43 30.0841 18.375 30.2929 18.3162C31.4111 18.0011 32.4144 17.1761 32.9117 16.1627C33.3849 15.1987 33.3763 15.3294 33.3543 9.44217L33.3348 4.21094L33.1864 3.79439C32.7786 2.6501 32.0567 1.81905 31.0512 1.33662C30.7222 1.17872 30.3002 1.01831 30.1135 0.980053C29.58 0.870917 4.16369 0.894051 3.70895 1.00408ZM23.9241 4.7276C24.3817 5.06974 24.5094 5.56339 24.2546 6.00531C24.0082 6.43263 23.8094 6.49351 22.7309 6.47224C21.9183 6.45621 21.7803 6.43782 21.6316 6.32574C21.1764 5.98282 21.1024 5.37133 21.4607 4.91575C21.7004 4.61103 21.9064 4.56187 22.8706 4.5795C23.6414 4.59353 23.7687 4.61141 23.9241 4.7276ZM28.4972 4.67569C28.6199 4.73727 28.7882 4.88864 28.8714 5.012C29.0775 5.31788 29.0489 5.88823 28.8149 6.13867C28.5248 6.44923 28.3775 6.48595 27.4217 6.48595C26.6022 6.48595 26.5134 6.47429 26.3131 6.34048C25.6984 5.92989 25.7525 5.01867 26.4109 4.6928C26.7716 4.51426 28.1533 4.50291 28.4972 4.67569ZM9.60063 14.1172C8.97427 14.2403 8.3083 14.7698 8.04299 15.3558C7.90585 15.6587 7.8938 15.7819 7.87477 17.0759L7.85426 18.4698H16.9633H26.0722L26.0517 17.0759C26.0327 15.7819 26.0207 15.6587 25.8835 15.3558C25.7145 14.9825 25.2539 14.5045 24.8762 14.3107C24.7344 14.2379 24.4637 14.1489 24.2747 14.1131C23.8494 14.0325 10.0124 14.0363 9.60063 14.1172Z" fill="#002878"/>
</svg>
