<svg width="29" height="29" viewBox="0 0 29 29" fill="none" xmlns="http://www.w3.org/2000/svg">
<path opacity="0.4" fill-rule="evenodd" clip-rule="evenodd" d="M11.998 6.36904C11.5414 6.48329 11.1996 6.6784 10.8553 7.02137C10.5008 7.37465 10.2864 7.76366 10.1877 8.2332C10.1511 8.40705 10.1272 9.15146 10.1272 10.1175V11.7145H19.0744H28.0216V10.1175C28.0216 9.1321 27.9981 8.41052 27.9601 8.2332C27.7602 7.29922 27.0092 6.54777 26.0804 6.35245C25.6457 6.26097 12.3672 6.27664 11.998 6.36904ZM21.0822 8.29903C21.3228 8.4218 21.5145 8.73419 21.5145 9.00326C21.5145 9.4177 21.1137 9.81664 20.6972 9.81664C20.445 9.81664 20.1099 9.60576 19.9906 9.37188C19.7904 8.97935 19.9161 8.5508 20.2995 8.31866C20.5591 8.16152 20.8007 8.15544 21.0822 8.29903ZM24.3357 8.29903C24.5763 8.4218 24.7681 8.73419 24.7681 9.00326C24.7681 9.4177 24.3672 9.81664 23.9507 9.81664C23.6985 9.81664 23.3635 9.60576 23.2442 9.37188C23.0439 8.97935 23.1696 8.5508 23.553 8.31866C23.8127 8.16152 24.0542 8.15544 24.3357 8.29903Z" fill="#002878"/>
<path fill-rule="evenodd" clip-rule="evenodd" d="M2.13042 0.837442C1.67384 0.951695 1.33206 1.1468 0.987782 1.48977C0.633202 1.84305 0.418849 2.23207 0.320104 2.70161C0.279002 2.89703 0.259644 4.19422 0.259644 6.75496V10.521H4.38078H8.50192V9.43419C8.50192 8.23255 8.56758 7.76431 8.82109 7.15796C9.21352 6.21938 10.0381 5.39363 10.9843 4.99166C11.7022 4.68669 11.9479 4.66462 14.6271 4.66462H17.0695V3.82678C17.0695 3.36598 17.0419 2.85967 17.008 2.70161C16.8082 1.76763 16.0572 1.01617 15.1283 0.820849C14.6944 0.729533 2.49932 0.74515 2.13042 0.837442ZM4.70754 5.20758C4.84533 5.27786 4.96051 5.39303 5.03078 5.53082C5.13083 5.72701 5.13994 5.84902 5.13994 6.99632C5.13994 8.14362 5.13083 8.26563 5.03078 8.46182C4.90737 8.70372 4.5953 8.89421 4.32254 8.89421C4.07034 8.89421 3.73533 8.68333 3.61604 8.44945C3.52353 8.26812 3.51339 8.12063 3.51545 6.98493C3.518 5.55376 3.5398 5.46033 3.92491 5.22721C4.18454 5.07007 4.42606 5.06399 4.70754 5.20758ZM0.259644 19.2215C0.259644 24.2899 0.277106 26.3767 0.321137 26.5826C0.520524 27.5142 1.26927 28.263 2.20086 28.4623C2.39781 28.5045 3.56187 28.5238 5.9011 28.5238H9.31394L9.12546 28.2292C8.93236 27.9273 8.77223 27.5662 8.61888 27.0869C8.54155 26.845 8.53039 26.0246 8.51574 19.4817L8.49926 12.1477H4.37948H0.259644V19.2215ZM10.1287 19.818C10.1287 24.4417 10.1463 26.3775 10.1902 26.5826C10.3896 27.5142 11.1383 28.263 12.0699 28.4623C12.4731 28.5486 25.6724 28.5495 26.0819 28.4633C27.0021 28.2695 27.7706 27.5012 27.9629 26.5826C28.005 26.3814 28.0231 24.3539 28.0231 19.818V13.3407H19.0759H10.1287V19.818ZM4.70754 13.8837C4.84533 13.9539 4.96051 14.0691 5.03078 14.2069C5.13517 14.4115 5.13994 14.5227 5.13994 16.7569C5.13994 18.9911 5.13517 19.1023 5.03078 19.3069C4.90737 19.5488 4.5953 19.7393 4.32254 19.7393C4.07034 19.7393 3.73533 19.5284 3.61604 19.2945C3.51962 19.1056 3.51333 18.9459 3.51545 16.7455C3.518 14.1035 3.51073 14.154 3.92491 13.9033C4.18454 13.7461 4.42606 13.7401 4.70754 13.8837ZM20.3502 15.1266C22.157 15.5978 23.5731 17.0223 24.0731 18.8717C24.1763 19.253 24.1978 19.4684 24.1978 20.1189C24.1978 20.7693 24.1763 20.9848 24.0731 21.3661C23.5735 23.2142 22.1769 24.6207 20.3502 25.1156C19.7082 25.2896 18.4751 25.2892 17.8287 25.115C15.9759 24.6155 14.583 23.2297 14.0764 21.3815C13.9097 20.7731 13.9097 19.4647 14.0764 18.8563C14.6367 16.8122 16.2831 15.3441 18.3981 15.0027C18.7739 14.942 19.9221 15.0149 20.3502 15.1266ZM18.3167 16.6785C17.3433 16.8876 16.3814 17.643 15.9381 18.5463C15.6835 19.0652 15.5531 19.5979 15.5531 20.1189C15.5531 21.4153 16.344 22.6878 17.5033 23.2566C18.5475 23.769 19.6043 23.769 20.6484 23.2566C21.5637 22.8075 22.3109 21.8467 22.5193 20.8509C22.6851 20.0579 22.5851 19.3033 22.2136 18.5463C21.8963 17.8996 21.2952 17.2985 20.6484 16.9811C19.8943 16.611 19.1068 16.5089 18.3167 16.6785Z" fill="#002878"/>
</svg>
