<svg width="30" height="30" viewBox="0 0 30 30" fill="none" xmlns="http://www.w3.org/2000/svg">
<path opacity="0.4" fill-rule="evenodd" clip-rule="evenodd" d="M25.825 2.13004L23.5715 2.87801V7.68149V12.485L25.8198 13.2324C27.7351 13.8691 28.1056 13.9756 28.3207 13.9513C28.6203 13.9175 28.8219 13.7804 28.9656 13.5126C29.0657 13.3259 29.0705 13.0576 29.0705 7.66953V2.02221L28.9429 1.8348C28.8728 1.73173 28.7494 1.59851 28.6687 1.53882C28.3548 1.30639 28.2251 1.33337 25.825 2.13004Z" fill="#002878"/>
<path fill-rule="evenodd" clip-rule="evenodd" d="M6.05907 0.675284C5.46263 0.779708 4.54811 1.08317 4.00366 1.35738C2.67778 2.02502 1.4188 3.2802 0.767037 4.58414C-0.554527 7.22817 -0.00848394 10.5043 2.10742 12.6267C3.37394 13.8972 4.95985 14.626 6.74656 14.7587C7.76551 14.8344 7.13046 14.9326 17.9018 13.0338C19.9441 12.6738 21.6724 12.366 21.7426 12.3497L21.8702 12.3202V7.67268C21.8702 5.11651 21.8499 3.02515 21.8252 3.02515C21.8005 3.02515 18.7456 2.48722 15.0365 1.82978C8.52924 0.676361 8.26205 0.633674 7.41414 0.613152C6.80664 0.598412 6.38838 0.61763 6.05907 0.675284ZM7.78636 5.07054C8.27804 5.16005 8.81013 5.44203 9.17119 5.80445C10.2221 6.85917 10.2243 8.50087 9.17607 9.54907C8.12192 10.6032 6.47959 10.6032 5.42544 9.54907C4.75292 8.87655 4.50338 7.98969 4.72367 7.05509C4.95146 6.08875 5.75124 5.30614 6.73385 5.088C7.13533 4.99888 7.37133 4.99497 7.78636 5.07054ZM6.99486 6.76886C6.78232 6.83247 6.51395 7.08644 6.41508 7.31763C6.15708 7.92058 6.62972 8.63403 7.28885 8.63658C7.90241 8.63891 8.35446 8.08612 8.23961 7.47398C8.1891 7.2047 7.85604 6.84126 7.59283 6.76813C7.35139 6.70106 7.22088 6.70123 6.99486 6.76886ZM9.9652 16.1454L6.98896 16.6686L7.0071 16.8056C7.10251 17.5274 8.01239 22.5666 8.08739 22.7889C8.23722 23.2328 8.54159 23.6966 8.90418 24.0336C9.26309 24.3671 9.90862 24.7091 10.296 24.771C10.5715 24.815 10.5642 24.8033 10.756 25.5028C11.1741 27.0272 12.3867 28.3869 13.8641 28.9879C14.6216 29.296 14.9635 29.3559 15.946 29.3523C16.7623 29.3493 16.9029 29.3338 17.3509 29.1972C19.2568 28.6162 20.6112 27.2136 21.1424 25.2709C21.254 24.8629 21.2681 24.6366 21.2983 22.7534C21.3312 20.7093 21.3332 20.6816 21.4645 20.4704C21.6406 20.1872 21.8975 19.9981 22.2255 19.9104C22.7079 19.7814 23.2365 20.0095 23.523 20.4704L23.6559 20.6842L23.6842 24.7703L23.7126 28.8565L23.8679 29.06C24.0506 29.2996 24.3405 29.4119 24.6639 29.3685C24.9435 29.331 25.1408 29.1911 25.28 28.9316C25.3793 28.7465 25.385 28.5212 25.385 24.7554C25.385 22.0683 25.3646 20.6771 25.3223 20.4744C25.2103 19.9376 24.9471 19.4705 24.5115 19.0356C23.7773 18.3028 22.8387 18.0217 21.8801 18.2476C20.8929 18.4804 20.1133 19.1704 19.758 20.1259C19.6425 20.4368 19.6327 20.5875 19.6007 22.5549C19.5685 24.5304 19.5591 24.6756 19.4378 25.0493C19.0568 26.2238 18.1898 27.1071 17.0104 27.5224C16.4956 27.7036 15.6616 27.7291 15.0774 27.5813C13.7431 27.2439 12.7642 26.3158 12.3809 25.0248C12.2548 24.6 12.2585 24.5855 12.5304 24.4471C12.663 24.3796 12.9523 24.1431 13.1734 23.9215C13.6564 23.4376 13.9078 22.9533 14.0252 22.2806C14.123 21.7204 14.1356 21.8209 13.5357 18.3461C13.2868 16.9043 13.0832 15.6989 13.0832 15.6675C13.0832 15.5919 13.3301 15.554 9.9652 16.1454Z" fill="#002878"/>
</svg>
