<svg width="34" height="34" viewBox="0 0 34 34" fill="none" xmlns="http://www.w3.org/2000/svg">
<path opacity="0.4" fill-rule="evenodd" clip-rule="evenodd" d="M5.32157 1.0094C5.00054 1.17213 4.80674 1.49271 4.80674 1.86114C4.80674 2.22956 5.00054 2.55014 5.32157 2.71287C5.52737 2.81722 5.79332 2.8248 8.70183 2.8092C11.7765 2.79276 11.8633 2.78884 12.0359 2.65989C12.3541 2.42215 12.4704 2.20837 12.4704 1.86114C12.4704 1.5139 12.3541 1.30012 12.0359 1.06238C11.8633 0.933431 11.7765 0.929514 8.70183 0.913074C5.79332 0.897469 5.52737 0.905046 5.32157 1.0094ZM30.4209 1.0067C30.2981 1.07047 30.1319 1.22081 30.0518 1.34083C29.925 1.53079 29.9061 1.64086 29.9061 2.19173V2.82442L29.3123 2.82454C28.6238 2.82461 28.3546 2.92511 28.126 3.2674C27.8207 3.7247 27.9996 4.38943 28.4952 4.63847C28.6596 4.72118 28.8752 4.75079 29.3123 4.75085L29.9061 4.75098V5.38366C29.9061 5.93453 29.925 6.0446 30.0518 6.23456C30.4425 6.81966 31.2176 6.80604 31.6653 6.20624C31.77 6.06579 31.8004 5.90814 31.8208 5.39721L31.8463 4.76254L32.4765 4.7407C32.9908 4.72292 33.1393 4.69453 33.2838 4.58645C33.6019 4.34858 33.7182 4.13486 33.7182 3.7877C33.7182 3.44053 33.6019 3.22681 33.2838 2.98894C33.1393 2.88086 32.9908 2.85248 32.4765 2.83469L31.8463 2.81286L31.8208 2.17818C31.7936 1.50003 31.728 1.33884 31.3698 1.07137C31.1324 0.894001 30.6956 0.864267 30.4209 1.0067ZM1.40581 4.86253C1.08478 5.02526 0.890991 5.34584 0.890991 5.71426C0.890991 6.08268 1.08478 6.40326 1.40581 6.56599C1.61167 6.67035 1.8791 6.67793 4.81817 6.66232C7.92522 6.64588 8.01162 6.64203 8.1843 6.51301C8.50251 6.27528 8.61883 6.06149 8.61883 5.71426C8.61883 5.36703 8.50251 5.15325 8.1843 4.91551C8.01162 4.78649 7.92522 4.78264 4.81817 4.7662C1.8791 4.75059 1.61167 4.75817 1.40581 4.86253ZM24.5794 28.107C24.4565 28.1708 24.2904 28.3211 24.2103 28.4411C24.0835 28.6311 24.0646 28.7412 24.0646 29.292V29.9247L23.4708 29.9249C22.7823 29.9249 22.513 30.0254 22.2845 30.3677C21.9791 30.825 22.1581 31.4897 22.6536 31.7388C22.8181 31.8215 23.0336 31.8511 23.4708 31.8512L24.0646 31.8513V32.484C24.0646 33.0348 24.0835 33.1449 24.2103 33.3349C24.601 33.92 25.3761 33.9064 25.8237 33.3066C25.9285 33.1661 25.9588 33.0084 25.9793 32.4975L26.0048 31.8629L26.635 31.841C27.1492 31.8232 27.2978 31.7948 27.4423 31.6868C27.7604 31.4489 27.8767 31.2352 27.8767 30.888C27.8767 30.5408 27.7604 30.3271 27.4423 30.0893C27.2978 29.9812 27.1492 29.9528 26.635 29.935L26.0048 29.9132L25.9793 29.2785C25.9521 28.6003 25.8864 28.4392 25.5283 28.1717C25.2908 27.9943 24.8541 27.9646 24.5794 28.107Z" fill="#002878"/>
<path fill-rule="evenodd" clip-rule="evenodd" d="M17.7415 2.42033C16.9088 2.53304 15.7525 2.98289 14.9974 3.48803C14.2076 4.0163 10.8263 7.43563 10.4883 8.04769C10.0922 8.76508 9.93236 9.35673 9.89565 10.2419L9.86362 11.0125L12.5508 8.34381C15.3973 5.5169 15.5091 5.42384 16.357 5.17468C16.8097 5.04168 17.7104 5.04168 18.1631 5.17468C19.0748 5.4426 19.8597 6.10013 20.2666 6.93665L20.5024 7.42137L20.9514 7.26583C21.5893 7.04485 22.4392 7.0462 23.076 7.26924C25.0091 7.94617 25.8798 9.95846 25.0707 11.8794C25.0404 11.9513 25.1562 12.0354 25.5262 12.2105C27.1507 12.9792 27.8453 14.9116 27.1181 16.6389C27.084 16.7201 27.1816 16.7933 27.5693 16.9776C28.17 17.2629 28.8197 17.8897 29.087 18.4415C29.5914 19.4828 29.5807 20.5978 29.0565 21.6034C28.8934 21.9161 28.453 22.3972 26.8438 24.0199C25.7389 25.1341 24.8348 26.0699 24.8348 26.0993C24.8348 26.1287 25.2176 26.1388 25.6853 26.1217C26.3859 26.0961 26.6265 26.06 27.0494 25.9169C28.0307 25.5851 28.3079 25.3709 30.248 23.4456C32.1664 21.5417 32.5113 21.139 32.9488 20.2921C33.8786 18.4919 33.9423 16.2298 33.1148 14.4039C32.609 13.2879 32.6042 13.2826 27.7618 8.42325C22.7923 3.43621 22.7206 3.37257 21.5257 2.88431C20.6283 2.51762 19.8362 2.37294 18.7906 2.38469C18.3195 2.38996 17.8474 2.40601 17.7415 2.42033ZM16.6426 7.11389C16.5326 7.17419 14.2217 9.42769 11.5072 12.1216C6.79699 16.7963 6.56988 17.0115 6.52758 16.8417C6.50319 16.7438 6.40985 15.3344 6.32023 13.7097L6.15732 10.7556L5.94734 10.3406C5.34219 9.14429 3.73539 8.91529 2.84728 9.89874C2.45763 10.3302 2.3813 10.5841 2.2698 11.8207C2.08319 13.8895 1.9591 14.9143 1.43497 18.7187C0.937794 22.3272 0.927274 22.4403 0.925027 24.2094C0.923294 25.5732 0.943256 25.9436 1.04417 26.425C1.40801 28.1605 2.18795 29.5479 3.58292 30.941C4.93823 32.2944 6.58913 33.1796 8.52981 33.5935C9.41252 33.7818 11.1966 33.8008 12.1069 33.6317C13.3934 33.3928 14.6944 32.8654 15.8109 32.1304C16.3967 31.7447 16.9669 31.1961 21.8653 26.3051C25.0126 23.1627 27.3187 20.811 27.3823 20.6792C27.4425 20.5546 27.503 20.2792 27.5169 20.0673C27.5676 19.2919 26.999 18.6366 26.2193 18.5719C25.5674 18.5179 25.563 18.5212 23.2621 20.8083C20.9855 23.0711 20.9927 23.0656 20.4441 22.9626C19.8346 22.8483 19.5249 22.1634 19.8234 21.5899C19.8916 21.4589 21.1367 20.1669 22.5903 18.7187C24.3466 16.9689 25.2735 15.9996 25.3535 15.8289C25.5994 15.3043 25.4643 14.5659 25.0515 14.1787C24.6654 13.8164 23.9978 13.6987 23.5007 13.9051C23.3383 13.9725 22.38 14.8842 20.5018 16.7579C18.0883 19.1655 17.7112 19.5171 17.5008 19.5558C16.7425 19.695 16.1881 19.1406 16.3268 18.3816C16.3656 18.1699 16.7847 17.7253 19.7938 14.7051C21.6764 12.8154 23.2589 11.1827 23.3105 11.0767C23.4589 10.7717 23.4899 10.4882 23.4143 10.1272C23.3567 9.85186 23.2843 9.73369 23.007 9.46237C22.5119 8.9779 21.9593 8.88511 21.3684 9.18719C21.2448 9.25038 19.656 10.7942 17.8378 12.618C16.0195 14.4417 14.4246 15.9897 14.2937 16.058C13.7205 16.3567 13.0359 16.0469 12.9216 15.4371C12.8164 14.8761 12.7556 14.9514 15.7216 11.9758C17.5945 10.0968 18.5058 9.13806 18.5732 8.97559C18.8699 8.26064 18.5224 7.39048 17.8238 7.09854C17.5067 6.96606 16.8979 6.97396 16.6426 7.11389Z" fill="#002878"/>
</svg>
