<svg width="22" height="34" viewBox="0 0 22 34" fill="none" xmlns="http://www.w3.org/2000/svg">
<path fill-rule="evenodd" clip-rule="evenodd" d="M5.02439 0.982472C4.78662 1.09254 4.57344 1.31911 4.48306 1.55774C4.43876 1.67469 4.41456 2.63212 4.41456 4.26784V6.79716L2.8143 6.81636C1.05362 6.83749 1.05645 6.83685 0.727458 7.27771C0.599714 7.44891 0.595093 7.53285 0.595093 9.6933C0.595093 11.8537 0.599714 11.9377 0.727458 12.1089C1.00747 12.4841 1.16467 12.5493 1.84588 12.5729L2.47787 12.5948L2.50605 15.5591C2.53217 18.3027 2.54463 18.57 2.67327 19.1491C3.05727 20.8782 3.81263 22.2585 5.05521 23.5016C6.06483 24.5116 7.13839 25.1823 8.43727 25.6143C8.99497 25.7999 9.87621 26.0049 10.1162 26.0049C10.2191 26.0049 10.2512 26.084 10.3185 26.5026C10.5206 27.76 11.1712 29.2781 11.9518 30.3134C13.4716 32.3292 15.8373 33.5981 18.3642 33.7528C18.9201 33.7869 19.0634 33.7753 19.2639 33.6801C19.9167 33.3702 20.0033 32.4457 19.4186 32.0292C19.2653 31.92 19.0804 31.88 18.5347 31.8375C16.0111 31.6413 13.9171 30.2615 12.8506 28.092C12.5695 27.5201 12.1819 26.3476 12.1819 26.069C12.1819 26.0427 12.4374 25.9744 12.7497 25.9173C14.4245 25.6107 15.9012 24.8397 17.1672 23.6108C18.5735 22.2459 19.4398 20.5788 19.7274 18.6839C19.7971 18.2251 19.8202 17.3949 19.8204 15.3343L19.8208 12.5948L20.4788 12.5729C21.0351 12.5544 21.1678 12.5289 21.3375 12.4078C21.7356 12.1237 21.7466 12.0508 21.7466 9.6933C21.7466 7.33576 21.7356 7.26287 21.3375 6.97877C21.1445 6.84108 21.0741 6.83479 19.5159 6.81642L17.895 6.79729V4.22526C17.895 1.38255 17.8922 1.36059 17.4859 1.07064C17.3404 0.966803 17.1939 0.927436 16.9529 0.927436C16.5939 0.927436 16.376 1.04502 16.1337 1.36952C16.0059 1.54079 16.0007 1.63538 15.9833 4.17511L15.9652 6.80345H11.1528H6.34034V4.22834C6.34034 1.39219 6.33618 1.35937 5.94139 1.07816C5.70433 0.909263 5.27859 0.864823 5.02439 0.982472ZM11.5797 12.6874C11.9786 12.8767 12.2036 13.3881 12.089 13.8448C12.0642 13.9435 11.7865 14.2856 11.4643 14.6143L10.8842 15.2061L12.2995 15.9185C13.7631 16.6552 13.943 16.7875 14.0168 17.1813C14.1126 17.6919 14.0426 17.802 12.8664 18.9927C12.2604 19.6061 11.6866 20.1488 11.5913 20.1987C11.0418 20.4862 10.2996 20.0624 10.2123 19.4113C10.1647 19.0564 10.3 18.8217 10.9182 18.1865C11.2017 17.8954 11.4215 17.6461 11.4066 17.6326C11.3917 17.6192 10.7393 17.2866 9.95684 16.8936C8.58016 16.2023 8.5299 16.1702 8.40016 15.9022C8.11277 15.3082 8.24566 15.0646 9.57239 13.7525C10.1497 13.1817 10.6913 12.6869 10.7761 12.6529C11.0125 12.5583 11.337 12.5722 11.5797 12.6874Z" fill="#002878"/>
</svg>
