<svg width="34" height="30" viewBox="0 0 34 30" fill="none" xmlns="http://www.w3.org/2000/svg">
<path fill-rule="evenodd" clip-rule="evenodd" d="M15.4262 0.416176C15.3079 0.474487 15.1451 0.625594 15.0646 0.751912C14.984 0.87823 12.9769 5.20214 10.6044 10.3606L6.29077 19.7396L5.83058 19.6588C4.2956 19.3892 2.79176 19.8817 1.65965 21.0245C0.979208 21.7114 0.563175 22.4896 0.368542 23.4394C-0.258942 26.5014 2.22757 29.3771 5.33706 29.1857C6.56481 29.1101 7.55999 28.6564 8.45715 27.7633C8.95073 27.272 9.0863 27.0891 9.33942 26.5727C9.99373 25.2381 10.0557 24.1721 9.56204 22.7434L9.35951 22.1572L13.3453 13.3996C15.5375 8.58294 17.383 4.46864 17.4464 4.25671C17.6272 3.65248 17.6026 2.65202 17.3923 2.05864C16.9104 0.698611 16.1471 0.0609183 15.4262 0.416176ZM23.904 0.414057C23.5701 0.578714 23.4086 0.857937 23.4086 1.27054C23.4086 1.53307 23.4454 1.67531 23.5518 1.82456C23.8257 2.20871 23.9602 2.23382 25.7453 2.23382H27.3565V3.19711V4.16039H25.7453C23.9602 4.16039 23.8257 4.1855 23.5518 4.56965C23.352 4.8499 23.352 5.39743 23.5518 5.67768C23.8257 6.06184 23.9602 6.08695 25.7453 6.08695H27.3565V7.05023V8.01351H25.7453C23.9602 8.01351 23.8257 8.03862 23.5518 8.42278C23.352 8.70303 23.352 9.25056 23.5518 9.53081C23.8257 9.91496 23.9602 9.94007 25.7453 9.94007H27.3565V10.9034V11.8666H25.7453C23.9602 11.8666 23.8257 11.8917 23.5518 12.2759C23.4454 12.4251 23.4086 12.5674 23.4086 12.8299C23.4086 13.0924 23.4454 13.2347 23.5518 13.3839C23.8257 13.7681 23.9602 13.7932 25.7453 13.7932H27.3565V14.7565V15.7198H25.7453C23.9602 15.7198 23.8257 15.7449 23.5518 16.129C23.352 16.4093 23.352 16.9568 23.5518 17.2371C23.8257 17.6212 23.9602 17.6463 25.7453 17.6463H27.3565V18.6096V19.5729H25.7453C23.9602 19.5729 23.8257 19.598 23.5518 19.9822C23.352 20.2624 23.352 20.8099 23.5518 21.0902C23.8257 21.4743 23.9602 21.4995 25.7453 21.4995H27.3565V22.4627V23.426H25.7453C23.9602 23.426 23.8257 23.4511 23.5518 23.8353C23.352 24.1155 23.352 24.6631 23.5518 24.9433C23.8257 25.3275 23.9602 25.3526 25.7453 25.3526H27.3565V26.3159V27.2791H25.7453C23.9602 27.2791 23.8257 27.3042 23.5518 27.6884C23.352 27.9687 23.352 28.5162 23.5518 28.7964C23.847 29.2105 23.8039 29.2057 27.2772 29.2057C29.1465 29.2057 30.5602 29.1791 30.7657 29.1401C31.929 28.9194 32.8816 27.9486 33.0712 26.7902C33.1549 26.279 33.1549 3.23397 33.0712 2.72272C32.8816 1.56441 31.929 0.593549 30.7657 0.372829C30.5594 0.333655 29.1501 0.30784 27.2675 0.308739C24.4948 0.310023 24.0893 0.322738 23.904 0.414057ZM5.60211 21.565C7.10589 21.8503 8.14768 23.3135 7.9144 24.8125C7.67188 26.3712 6.17792 27.4799 4.65932 27.2281C3.49139 27.0345 2.57722 26.2032 2.29522 25.0783C2.166 24.5627 2.166 24.2158 2.29522 23.7003C2.66517 22.2247 4.1217 21.2841 5.60211 21.565Z" fill="#002878"/>
<path opacity="0.4" fill-rule="evenodd" clip-rule="evenodd" d="M12.9576 18.9021C12.4035 20.1234 11.9502 21.1614 11.9502 21.2087C11.9502 21.256 12.0368 21.4779 12.1427 21.7018C12.2486 21.9258 12.3353 22.1401 12.3353 22.1782C12.3353 22.2162 12.2625 22.4266 12.1736 22.6457C11.4601 24.4023 11.8654 26.3917 13.2143 27.7535C14.213 28.7617 15.518 29.2697 16.8917 29.1851C18.1195 29.1095 19.1147 28.6559 20.0118 27.7628C20.5051 27.2718 20.6412 27.0882 20.8944 26.5722C21.3094 25.7266 21.415 25.2838 21.415 24.3887C21.415 23.4937 21.3094 23.0509 20.8944 22.2053C20.6412 21.6893 20.5051 21.5057 20.0118 21.0147C19.3731 20.3789 18.7875 20.0246 17.9526 19.7687C17.3545 19.5854 16.4779 19.5363 15.8854 19.6529L15.4233 19.7439L14.7401 18.2614C14.3643 17.446 14.0363 16.757 14.011 16.7303C13.9857 16.7036 13.5117 17.6809 12.9576 18.9021ZM17.1568 21.5645C18.6606 21.8497 19.7024 23.313 19.4691 24.8119C19.2761 26.0525 18.3105 27.02 17.0585 27.2276C15.9359 27.4136 14.6815 26.7992 14.1201 25.7882C13.9204 25.4286 13.7476 24.7793 13.7476 24.3887C13.7476 24.2343 13.7936 23.9242 13.8499 23.6997C14.2198 22.2241 15.6764 21.2836 17.1568 21.5645Z" fill="#002878"/>
<path opacity="0.4" fill-rule="evenodd" clip-rule="evenodd" d="M5.43163 0.435335C4.76968 0.763172 4.12537 2.13752 4.1221 3.22853C4.11979 4.02015 4.24631 4.35666 5.98844 8.19347C6.91352 10.231 7.68737 11.9178 7.7081 11.9419C7.73782 11.9767 9.57412 8.06324 9.74083 7.60979C9.76856 7.53433 9.26567 6.3712 8.25541 4.17409C7.41532 2.34719 6.67569 0.776272 6.61182 0.683155C6.48998 0.505719 6.07882 0.306512 5.83464 0.306641C5.75587 0.306641 5.57453 0.364566 5.43163 0.435335Z" fill="#002878"/>
</svg>
