<svg width="34" height="34" viewBox="0 0 34 34" fill="none" xmlns="http://www.w3.org/2000/svg">
<path fill-rule="evenodd" clip-rule="evenodd" d="M5.15615 0.731378C4.19488 0.922569 3.35141 1.66894 3.01223 2.62855C2.89167 2.96959 2.8775 3.18635 2.8527 5.07186C2.83552 6.377 2.85154 7.33468 2.89609 7.66566C2.98857 8.35294 3.24731 8.90139 3.68411 9.3362C4.31633 9.96547 4.98739 10.2133 6.0591 10.2133H6.67676L6.69599 12.3765C6.71458 14.4752 6.71953 14.5484 6.86047 14.8345C7.52877 16.1907 9.34402 16.3193 10.1851 15.0698C10.4705 14.6457 10.5287 14.1955 10.5287 12.4128C10.5287 10.9189 10.533 10.8667 10.6742 10.6554C11.0566 10.0831 11.8596 10.0831 12.2419 10.6554C12.3668 10.8423 12.3874 10.9566 12.3874 11.4608C12.3874 12.5 12.5278 12.989 12.9553 13.4395C13.9249 14.4609 15.6066 14.1039 16.1139 12.7688C16.2136 12.5066 16.2331 12.2717 16.2331 11.3342V10.2133H20.7061C25.6083 10.2133 25.591 10.2145 26.2602 9.82997C26.6479 9.60718 27.1147 9.13629 27.3425 8.73827C27.5777 8.32698 27.7038 7.717 27.7049 6.9839L27.7058 6.3502L28.309 6.3818C28.9686 6.41629 29.2227 6.51659 29.4616 6.83687C29.5878 7.00595 29.5978 7.10978 29.615 8.43921C29.6327 9.81241 29.6284 9.87055 29.4868 10.1477C29.4062 10.3056 29.2537 10.484 29.1479 10.5444C29.0422 10.6047 26.5206 11.3472 23.5444 12.1944C20.5682 13.0415 17.982 13.8111 17.7972 13.9047C17.6124 13.9982 17.3128 14.2223 17.1314 14.4027C16.4682 15.0625 16.2356 15.7166 16.234 16.9271L16.2331 17.6482H17.1891H18.1452L18.1665 16.8835C18.1894 16.0642 18.2407 15.9211 18.6085 15.6502C18.6944 15.5869 21.2019 14.8415 24.1807 13.9937C27.1594 13.146 29.7508 12.3777 29.9394 12.2864C30.7037 11.9165 31.3474 11.0264 31.4851 10.1492C31.5644 9.64365 31.5686 7.59099 31.4915 6.99313C31.3876 6.18734 30.9016 5.41085 30.2175 4.95771C29.7389 4.6407 29.2066 4.50899 28.4041 4.50899H27.7058L27.7049 3.88408C27.7043 3.54041 27.6603 3.07419 27.607 2.8482C27.3914 1.93339 26.6565 1.13376 25.7281 0.803675C25.4568 0.707279 24.5451 0.69696 15.4319 0.687089C9.93266 0.681129 5.30857 0.701062 5.15615 0.731378Z" fill="#002878"/>
<path opacity="0.4" fill-rule="evenodd" clip-rule="evenodd" d="M12.7323 19.727C12.4888 19.833 12.3861 20.092 12.39 20.59C12.3962 21.3865 12.4185 21.4271 13.3737 22.3842L14.2463 23.2585L13.6919 25.9814C13.1941 28.4267 13.1375 28.7762 13.1375 29.4094C13.1376 30.0081 13.1639 30.1918 13.3119 30.6271C13.5969 31.466 14.0482 32.1171 14.6819 32.6038C15.4762 33.214 16.1697 33.4466 17.1942 33.4466C18.2187 33.4466 18.9122 33.214 19.7065 32.6038C20.3461 32.1125 20.8212 31.4304 21.0835 30.6271C21.2228 30.2005 21.2509 29.996 21.2507 29.4094C21.2506 28.7766 21.1938 28.4253 20.6967 25.983L20.1427 23.2617L21.0399 22.3568L21.9371 21.4518V20.8618C21.9371 20.2133 21.8475 19.9065 21.6092 19.7396C21.4748 19.6455 21.0369 19.6354 17.1959 19.6376C13.752 19.6396 12.8936 19.6568 12.7323 19.727Z" fill="#002878"/>
</svg>
