<svg width="34" height="33" viewBox="0 0 34 33" fill="none" xmlns="http://www.w3.org/2000/svg">
<path fill-rule="evenodd" clip-rule="evenodd" d="M1.8144 0.131047C1.40626 0.257879 0.859472 0.766042 0.662913 1.20119C0.517067 1.52402 0.51001 1.60339 0.51001 2.92032C0.51001 4.23726 0.517067 4.31663 0.662913 4.63946C0.871733 5.10171 1.40697 5.5854 1.85324 5.71519C2.14551 5.80021 2.77325 5.81126 6.42229 5.79591L10.6525 5.77806L10.9813 5.60448C11.391 5.38831 11.7987 4.93275 11.9315 4.54288C12.0774 4.11447 12.0774 1.72618 11.9315 1.29777C11.7987 0.907901 11.391 0.452333 10.9813 0.236173L10.6525 0.0625898L6.38364 0.0501314C2.80368 0.0396638 2.06635 0.0527002 1.8144 0.131047ZM28.4544 0.57923C28.0459 0.708052 27.4988 1.21711 27.3029 1.65072L27.15 1.98915V6.2597V10.5302L27.3029 10.8687C27.3974 11.0778 27.5893 11.3292 27.8051 11.5265C28.3283 12.0048 28.5579 12.0533 30.1834 12.028C31.4876 12.0077 31.5219 12.0037 31.844 11.8337C32.0249 11.7383 32.2899 11.5271 32.433 11.3646C32.91 10.8224 32.8953 10.9847 32.8953 6.2597C32.8953 1.53468 32.91 1.69696 32.433 1.15482C32.2899 0.992285 32.0249 0.781133 31.844 0.685704C31.5191 0.51424 31.4984 0.511928 30.135 0.498314C29.0662 0.48759 28.687 0.505828 28.4544 0.57923ZM23.3305 1.48792C19.5993 1.88769 16.478 4.62482 15.5922 8.27392C15.3446 9.29403 15.2984 10.3661 15.3193 14.6081L15.3385 18.4934L20.137 18.5098L24.9354 18.5263V14.8012V11.0761H25.127H25.3185L25.2714 10.6747C25.2099 10.1517 25.2099 2.36772 25.2714 1.84466L25.3185 1.44329L24.4369 1.45357C23.952 1.45922 23.4541 1.4747 23.3305 1.48792ZM3.06892 16.3095C2.92282 16.3627 2.50397 16.5352 2.13813 16.6929L1.4729 16.9796L1.4539 19.1814C1.42745 22.2461 1.55115 23.3608 2.09339 24.9423C3.1111 27.9105 5.29756 30.3839 8.08475 31.7202C8.97774 32.1483 9.38041 32.2962 10.2955 32.5324C13.5354 33.3684 16.9478 32.7764 19.7679 30.8889C22.9786 28.7399 24.9354 25.1071 24.9354 21.2947V20.452H20.1267H15.3181L15.2942 21.1103C15.2663 21.8765 15.1388 22.2092 14.706 22.6445C14.29 23.063 13.839 23.2454 13.2202 23.2454C12.3455 23.2454 11.6927 22.8432 11.3118 22.0696L11.1018 21.6432L11.0697 19.3025L11.0376 16.9618L10.2194 16.6168C9.0332 16.1167 8.94525 16.1146 7.98993 16.5635C6.95675 17.049 6.4298 17.1603 5.78659 17.0291C5.51306 16.9733 5.02559 16.7924 4.61591 16.5947C3.83802 16.2194 3.49176 16.1556 3.06892 16.3095Z" fill="#002878"/>
<path opacity="0.4" fill-rule="evenodd" clip-rule="evenodd" d="M1.44104 11.2298C1.44104 13.2292 1.45638 14.865 1.47519 14.865C1.494 14.865 1.61673 14.8188 1.74801 14.7623C2.39289 14.4846 2.92171 14.3419 3.43101 14.3079C3.90867 14.2761 4.03879 14.2925 4.47569 14.4399C4.75018 14.5325 5.21224 14.7277 5.50252 14.8738C5.79793 15.0224 6.12942 15.1418 6.25556 15.1451C6.40564 15.1491 6.73823 15.0289 7.25087 14.7857C7.67435 14.5847 8.15079 14.391 8.30966 14.3553C8.96308 14.2081 9.82443 14.3346 10.6446 14.6979C10.852 14.7898 11.0326 14.865 11.0458 14.865C11.0591 14.865 11.07 13.2362 11.07 11.2455V7.62585L10.7511 7.68384C10.3505 7.75667 1.70628 7.72449 1.55338 7.64962C1.44707 7.59753 1.44104 7.78955 1.44104 11.2298Z" fill="#002878"/>
</svg>
