<svg width="34" height="25" viewBox="0 0 34 25" fill="none" xmlns="http://www.w3.org/2000/svg">
<path fill-rule="evenodd" clip-rule="evenodd" d="M1.33139 0.74698C1.21334 0.826611 1.05742 0.992745 0.984879 1.11624C0.853476 1.3401 0.853027 1.37228 0.853027 10.9415C0.853027 20.4284 0.854565 20.5447 0.98141 20.7554C1.13932 21.0176 1.42222 21.1983 1.7195 21.227L1.94404 21.2486L1.98776 20.8074C2.07551 19.9219 2.31752 19.2259 2.7937 18.4895C3.30076 17.7053 3.99552 17.1058 4.88151 16.6878C5.51605 16.3884 6.00045 16.2696 6.76139 16.2267C8.23763 16.1435 9.62535 16.7037 10.6526 17.7974C11.4211 18.6156 11.8432 19.5106 12.0075 20.6707L12.0894 21.2486H16.0038H19.9183L19.935 11.4874C19.9464 4.85114 19.9302 1.62125 19.8843 1.39854C19.8167 1.07019 19.633 0.830721 19.3287 0.674348C19.2271 0.622139 16.7623 0.602295 10.3673 0.602295H1.54605L1.33139 0.74698ZM10.6818 3.4949C10.9066 3.58038 16.551 7.10926 16.805 7.32311C17.1697 7.63007 17.2148 8.24516 16.8999 8.61943C16.6851 8.87483 16.4168 8.97295 16.0338 8.93615L15.7137 8.90539V11.1462C15.7137 13.2652 15.7067 13.4007 15.5844 13.6404C15.5012 13.8035 15.3649 13.94 15.2018 14.0232C14.9549 14.1492 14.832 14.1525 10.3809 14.1525C5.84755 14.1525 5.81153 14.1514 5.57145 14.0164C5.43838 13.9416 5.26839 13.7716 5.19361 13.6384C5.06234 13.4048 5.05765 13.3191 5.05765 11.1534V8.9104L4.68854 8.93628C4.38061 8.9578 4.2822 8.93699 4.09476 8.81067C3.65151 8.51186 3.52223 7.88798 3.81957 7.48244C3.93762 7.32137 9.42918 3.81291 9.9684 3.55405C10.2613 3.41341 10.4307 3.39941 10.6818 3.4949ZM23.0156 13.3656L21.8762 13.3848V17.336V21.2872L22.2449 21.2679L22.6137 21.2486L22.6626 20.8954C22.865 19.4371 23.3312 18.4654 24.2402 17.6075C25.2877 16.6189 26.5487 16.1483 27.9397 16.2267C28.7522 16.2725 29.2044 16.3911 29.9323 16.7495C31.4968 17.5196 32.5777 19.0617 32.7043 20.7044C32.7421 21.1942 32.7506 21.2165 32.9009 21.2165C33.1295 21.2165 33.4192 21.0246 33.5797 20.767C33.7087 20.5598 33.7215 20.4443 33.7415 19.29C33.788 16.6161 33.519 15.652 32.4213 14.5577C31.8498 13.9881 31.0421 13.5593 30.2637 13.4125C29.7744 13.3202 26.8514 13.3013 23.0156 13.3656ZM6.22031 18.2355C5.15144 18.5231 4.27739 19.4018 3.98955 20.478C3.94237 20.6546 3.90372 21.0014 3.90372 21.2486C3.90372 23.5915 6.41546 25.0955 8.48715 23.993C8.96153 23.7406 9.56565 23.1051 9.80169 22.6102C10.3755 21.4075 10.1427 20.019 9.20823 19.0704C8.42033 18.2706 7.27718 17.9512 6.22031 18.2355ZM26.9689 18.2254C25.4304 18.5986 24.3586 20.1997 24.63 21.719C25.074 24.2046 28.0088 25.2212 29.8129 23.5143C30.4952 22.8687 30.799 22.1707 30.799 21.2486C30.799 20.3265 30.4952 19.6285 29.8129 18.983C29.0555 18.2664 27.9804 17.98 26.9689 18.2254Z" fill="#002878"/>
<path opacity="0.4" fill-rule="evenodd" clip-rule="evenodd" d="M21.8761 8.60751V11.4756L23.5234 11.4331C24.4294 11.4098 26.1024 11.3908 27.2409 11.3908H29.3111L28.41 9.44813C27.9145 8.37973 27.4276 7.3871 27.3281 7.24235C27.0518 6.8404 26.475 6.34553 26.0309 6.12937C25.3215 5.78413 25.0172 5.7395 23.3711 5.7395H21.8761V8.60751Z" fill="#002878"/>
<path opacity="0.4" fill-rule="evenodd" clip-rule="evenodd" d="M8.66858 6.6152L6.98352 7.67725V9.95149V12.2257H10.3866H13.7896L13.7727 9.93627L13.7559 7.64687L12.0868 6.59914C11.1689 6.02284 10.4034 5.55173 10.3857 5.55225C10.3681 5.55276 9.5954 6.03106 8.66858 6.6152Z" fill="#002878"/>
</svg>
